<svg id="Layer_1" data-name="Layer 1" xmlns="http://www.w3.org/2000/svg" viewBox="0 0 222.53 325.44"><defs><style>.cls-1,.cls-4{fill:#231f20;}.cls-2{fill:none;}.cls-2,.cls-3{stroke:#231f20;stroke-miterlimit:10;stroke-width:3.03px;}.cls-3{fill:#fff;}.cls-4{font-size:54.6px;font-family:NexaBold, Nexa Bold;}.cls-5{letter-spacing:0.01em;}.cls-6{letter-spacing:-0.01em;}</style></defs><title>logo</title><rect class="cls-1" x="118.93" y="197.23" width="79.52" height="21.76"/><rect class="cls-1" x="19.97" width="81.19" height="21.76"/><line class="cls-2" x1="19.97" y1="0.62" x2="19.97" y2="20.53"/><line class="cls-2" x1="99.49" y1="1.24" x2="99.49" y2="20.53"/><line class="cls-2" x1="118.93" y1="20.53" x2="0.54" y2="20.53"/><path class="cls-3" d="M189,145.42" transform="translate(-70.11 -47.15)"/><line class="cls-3" x1="0.54" y1="98.28" x2="118.93" y2="98.28"/><line class="cls-3" x1="118.93" y1="117.71" x2="118.92" y2="1.24"/><line class="cls-3" x1="198.44" y1="1.24" x2="198.45" y2="117.71"/><path class="cls-3" d="M90.08,145.42" transform="translate(-70.11 -47.15)"/><line class="cls-2" x1="19.97" y1="98.28" x2="19.97" y2="218.44"/><polyline class="cls-2" points="99.49 98.28 99.49 117.71 99.49 197.23 118.93 197.23 217.88 197.23"/><line class="cls-2" x1="99.49" y1="117.71" x2="217.88" y2="117.71"/><line class="cls-2" x1="118.93" y1="218.99" x2="118.93" y2="197.23"/><line class="cls-2" x1="198.45" y1="197.23" x2="198.45" y2="218.99"/><line class="cls-2" x1="99.49" y1="197.23" x2="99.49" y2="218.44"/><path class="cls-2" d="M243.56,113.12" transform="translate(-70.11 -47.15)"/><rect class="cls-1" x="19.97" y="98.28" width="79.52" height="120.16"/><rect class="cls-1" x="118.93" y="1.24" width="79.52" height="116.48"/><line class="cls-2" x1="118.93" y1="20.53" x2="218.42" y2="20.53"/><line class="cls-2" x1="118.93" y1="98.28" x2="218.42" y2="98.28"/><line class="cls-2" x1="99.49" y1="117.71" y2="117.71"/><line class="cls-2" x1="99.49" y1="197.23" x2="0.54" y2="197.23"/><text class="cls-4" transform="translate(74.38 269.06)"><tspan class="cls-5">c</tspan><tspan class="cls-6" x="26.59" y="0">o</tspan><tspan x="57.33" y="0">ysa</tspan></text></svg>